<svg width="759" height="253" viewBox="0 0 759 253" fill="none" xmlns="http://www.w3.org/2000/svg">
<path fill-rule="evenodd" clip-rule="evenodd" d="M496.818 125.196C507.864 125.196 516.818 116.242 516.818 105.196C516.818 94.1503 507.864 85.196 496.818 85.196C485.772 85.196 476.818 94.1503 476.818 105.196C476.818 116.242 485.772 125.196 496.818 125.196Z" fill="#FF7E00"/>
<path fill-rule="evenodd" clip-rule="evenodd" d="M637.818 162.196C643.341 162.196 647.818 157.719 647.818 152.196C647.818 146.673 643.341 142.196 637.818 142.196C632.295 142.196 627.818 146.673 627.818 152.196C627.818 157.719 632.295 162.196 637.818 162.196Z" fill="#F7C348"/>
<path fill-rule="evenodd" clip-rule="evenodd" d="M362 177.196C373.046 177.196 382 168.242 382 157.196C382 146.15 373.046 137.196 362 137.196C350.954 137.196 342 146.15 342 157.196C342 168.242 350.954 177.196 362 177.196Z" fill="#FEFF65"/>
<path fill-rule="evenodd" clip-rule="evenodd" d="M68.818 218.196C74.3408 218.196 78.818 213.719 78.818 208.196C78.818 202.673 74.3408 198.196 68.818 198.196C63.2951 198.196 58.818 202.673 58.818 208.196C58.818 213.719 63.2951 218.196 68.818 218.196Z" fill="#FFBDCA"/>
<path fill-rule="evenodd" clip-rule="evenodd" d="M226.818 148.196C230.132 148.196 232.818 145.51 232.818 142.196C232.818 138.882 230.132 136.196 226.818 136.196C223.504 136.196 220.818 138.882 220.818 142.196C220.818 145.51 223.504 148.196 226.818 148.196Z" fill="#FFE949"/>
<path fill-rule="evenodd" clip-rule="evenodd" d="M390.553 130.992C393.754 130.134 395.653 126.844 394.796 123.643C393.938 120.442 390.648 118.543 387.447 119.4C384.246 120.258 382.347 123.548 383.204 126.749C384.062 129.95 387.352 131.849 390.553 130.992Z" fill="#49FFF4"/>
<path fill-rule="evenodd" clip-rule="evenodd" d="M527.818 155.196C531.132 155.196 533.818 152.51 533.818 149.196C533.818 145.882 531.132 143.196 527.818 143.196C524.504 143.196 521.818 145.882 521.818 149.196C521.818 152.51 524.504 155.196 527.818 155.196Z" fill="#FFE949"/>
<rect x="54.7175" y="128.154" width="20" height="48" transform="rotate(45 54.7175 128.154)" fill="#FCADFF"/>
<rect x="199.919" y="174.367" width="10" height="18" transform="rotate(-45 199.919 174.367)" fill="#9BFFDA"/>
<path fill-rule="evenodd" clip-rule="evenodd" d="M154.818 136.196C182.432 136.196 204.818 113.81 204.818 86.196C204.818 58.5818 182.432 36.196 154.818 36.196C127.204 36.196 104.818 58.5818 104.818 86.196C104.818 113.81 127.204 136.196 154.818 136.196Z" fill="#37DAFF"/>
<rect x="599.622" y="56.5686" width="80" height="144" transform="rotate(-45 599.622 56.5686)" fill="#FFE949"/>
<rect x="465.895" y="187.416" width="8" height="15" transform="rotate(15 465.895 187.416)" fill="#FFE949"/>
<rect x="317.077" y="109.416" width="8" height="15" transform="rotate(15 317.077 109.416)" fill="#E0B6FF"/>
<rect x="126.104" y="170.201" width="8" height="15" transform="rotate(30 126.104 170.201)" fill="#FFE949"/>
<rect width="8" height="15" transform="matrix(-0.707107 0.707107 0.707107 0.707107 594.343 209.564)" fill="#FF3C00"/>
<rect width="12" height="20" transform="matrix(-0.707107 0.707107 0.707107 0.707107 9.17157 105.736)" fill="#FFA746"/>
<rect width="16" height="30" transform="matrix(-0.5 0.866025 0.866025 0.5 581.828 99.7678)" fill="#49FFF4"/>
<rect x="687.148" y="233.964" width="10" height="20" transform="rotate(60 687.148 233.964)" fill="#49FFF4"/>
</svg>
